# xmcd CD database file
#
# Track frame offsets:
#	150
#	34437
#	58292
#	73751
#	106222
#	108688
#	118328
#	145594
#	190334
#
# Disc length: 2650 seconds
#
# Revision: 0
# Processed by: cddbd v1.5.2PL0 Copyright (c) Steve Scherf et al.
# Submitted via: CDex 1.51
#
DISCID=8f0a5809
DTITLE=Miguel Barella and Giuseppe Lenti - Alvos Moveis: Slow Link
DYEAR=1900
DGENRE=Jazz
TTITLE0=Tango
TTITLE1=Your place
TTITLE2=O inferno sao os outros
TTITLE3=98 gradini
TTITLE4=Gralla
TTITLE5=1987
TTITLE6=UQBAR
TTITLE7=Slow link
TTITLE8=He venido para ver
EXTD=
EXTT0=
EXTT1=
EXTT2=
EXTT3=
EXTT4=
EXTT5=
EXTT6=
EXTT7=
EXTT8=
PLAYORDER=
